<?xml version="1.0" encoding="UTF-8"?>
<svg id="Layer_1" data-name="Layer 1" xmlns="http://www.w3.org/2000/svg" viewBox="0 0 244.93 213.27">
  <defs>
    <style>
      .cls-1 {
        stroke-width: 10px;
      }

      .cls-1, .cls-2, .cls-3, .cls-4 {
        stroke: #231f20;
        stroke-miterlimit: 10;
      }

      .cls-1, .cls-3 {
        fill: #231f20;
      }

      .cls-2 {
        fill: #f69e9a;
      }

      .cls-2, .cls-4 {
        stroke-width: 20px;
      }

      .cls-3 {
        stroke-width: 5px;
      }

      .cls-4 {
        fill: #cbe2f5;
      }
    </style>
  </defs>
  <path class="cls-4" d="M147.89,10l-13.94,120.37-2.28,19.66-6.17,53.24h-60.77c-13.8,0-25-11.19-25-25V35c0-13.81,11.2-25,25-25h83.16Z"/>
  <rect class="cls-3" x="75.11" y="60.3" width="37.39" height="37.39" rx="18.7" ry="18.7"/>
  <rect class="cls-3" x="2.5" y="60.3" width="19.66" height="92.68" rx="9.83" ry="9.83" transform="translate(24.66 213.27) rotate(-180)"/>
  <path class="cls-3" d="M133.95,130.37l-2.28,19.66h-36.3c-2.76,0-5-2.24-5-5v-9.66c0-2.77,2.24-5,5-5h38.58Z"/>
  <path class="cls-2" d="M234.93,10v123.27c0,38.66-31.34,70-70,70h-37.71l3.71-30.85,5.88-48.84,13.68-113.58h84.44Z"/>
  <path class="cls-1" d="M199.99,123.58v8.84c0,22.09-17.9,40-40,40h-29.06l5.88-48.84h63.18Z"/>
  <path class="cls-3" d="M202.85,83.49h-37.39c0-5.17,2.09-9.84,5.47-13.22,3.39-3.39,8.06-5.48,13.22-5.48s9.84,2.09,13.22,5.48c3.39,3.38,5.48,8.05,5.48,13.22Z"/>
</svg>